<svg xmlns="http://www.w3.org/2000/svg" style="display:none"><symbol id="chevron-down" viewBox="0 0 9 5"><path stroke="var(--stroke-1, #000)" stroke-linecap="round" stroke-width="1.4" d="m.7.7 3.648 3.2L7.995.7" fill="var(--color-1, #000)" style="transition: fill var(--icon-duration, 0.3s) ease, stroke var(--icon-duration, 0.3s) ease;"/></symbol><symbol id="facebook" viewBox="0 0 10 19"><path fill="var(--color-1, #000)" fill-rule="evenodd" d="M6.136 18.989H2.045V9.495H0V6.222h2.045V4.258C2.045 1.589 3.2 0 6.478 0h2.73v3.273H7.503c-1.278 0-1.362.458-1.362 1.312l-.005 1.637h3.092l-.362 3.273h-2.73z" clip-rule="evenodd" style="transition: fill var(--icon-duration, 0.3s) ease, stroke var(--icon-duration, 0.3s) ease;"/></symbol><symbol id="logo" viewBox="0 0 55 55"><path fill="#e43b2e" d="M34 0c4.507 2.135 7.174 4.918 10 9 .937 2.812 1.135 4.587 1.125 7.5l.008 2.344C45 21 45 21 44 24c3.173 3.536 5.167 5.586 10 6v3l-3.437.375L47 34l-1 2H9l-1-2a109 109 0 0 0-7-1v-3l2.813-.812C7.52 27.828 7.52 27.828 10 25c.213-2.97.213-2.97-.062-6.25C9.803 12.71 10.266 9.743 14 5 20.314-.712 25.666-.73 34 0M24 8v2h-3l-.812 2.375C19 15 19 15 16 17l.625 2.313C17 22 17 22 15 25c3.552 0 4.09-.533 6.625-2.875 3.707-3.8 4.224-6.993 4.402-12.184L26 8z"/><path fill="#fcb54b" d="M34 0c4.507 2.135 7.174 4.918 10 9 .942 2.827 1.135 4.632 1.125 7.563l.008 2.378C45 21 45 21 44 23l-6-3c-2.117.892-2.117.892-4 2l-2.187-2.5c-2.542-2.744-2.542-2.744-5.625-2.812L24 17l1-8-1 1h-3l-.312 2.375C20 15 20 15 17 17l1 5c-2.647 1.46-3.894 2-7 2-1.53-4.59-1.941-9.375-.281-14.004C16.107-.064 23.519-.919 34 0"/><path fill="#fdb54a" d="M1 38h17v17H1z"/><path fill="#fcb54b" d="M37 38h17v17H37z"/><path fill="#fdb34c" d="M19 38h17v17H19z"/><path fill="#e04428" d="M25 44h5v5c-1.937.563-1.937.563-4 1-1-1-1-1-1.062-3.562z"/><path fill="#fdaf57" d="m26 12 2 1v2l4-1v5l-3-2c-2.625-.167-2.625-.167-5 0z"/><path fill="#dc3e39" d="m48 29 6 1v3h-6z"/></symbol><symbol id="steam" viewBox="0 0 350 350"><path fill="var(--color-1, #000)" d="M315.254 42.625C330.27 55.613 340.626 69.125 347 88l1.031 2.922c6.286 21.533 2.547 46.626-8.031 66.078-4.434 7.899-9.756 14.464-16 21l-1.672 1.898C309.5 193.933 288.523 201.771 270 204q-3.532-.029-7.062-.125c-9.44.47-15.723 7.327-22.59 13.174-3.757 3.121-7.704 5.965-11.66 8.826a960 960 0 0 0-22.814 17.166c-4.329 3.347-8.677 6.531-13.284 9.486-10.378 6.373-10.378 6.373-15.903 16.692-.374 2.15-.682 4.3-.968 6.465-1.61 11.865-9.407 22.185-17.719 30.316l-1.844 1.984c-9.625 10.238-24.701 16.67-38.71 17.254-18.775.395-35.14-2.844-49.758-15.613A264 264 0 0 1 63 305l-2.148-2.082c-5.947-6.14-11.486-14.608-13.32-23.082-.812-3.514-1.49-6.056-4.45-8.272-2.53-1.206-5.063-2.172-7.71-3.091l-2.866-1.09a585 585 0 0 0-9.068-3.32 2254 2254 0 0 1-9.08-3.395 572 572 0 0 0-5.652-2.08l-2.58-.943-2.273-.82C2 256 2 256 0 254a90 90 0 0 1-.275-7.54l-.015-2.355c-.014-2.577-.013-5.153-.01-7.73l-.014-5.358a3307 3307 0 0 1-.002-11.238c.006-4.809-.01-9.617-.034-14.426a2290 2290 0 0 1-.013-11.067q0-2.66-.015-5.32c-.013-2.476-.006-4.951.006-7.427l-.023-2.235c.02-2.04.02-2.04.395-5.304 3-2 3-2 5.52-1.89 4.915 1.257 9.476 3.167 14.152 5.117l3.14 1.29a3876 3876 0 0 1 9.938 4.108q11.156 4.606 22.328 9.172c2.776 1.143 5.54 2.31 8.303 3.483q2.41.998 4.822 1.993l2.155.942c3.394 1.377 5.314 1.86 8.926 1.034L82 198l3.254-1.254q3.313-1.311 6.625-2.625c4.193-1.506 7.212-2.184 11.687-1.875 5 .325 10.043.62 14.17-2.601 3.5-3.753 6.201-8.053 8.88-12.412 1.729-2.79 3.588-5.473 5.466-8.163a600 600 0 0 0 4.082-5.953c2.973-4.345 6.053-8.609 9.149-12.867a1317 1317 0 0 0 19.176-27.122 80 80 0 0 1 2.987-3.956c3.607-4.529 4.33-8.206 4.649-13.922q.204-2.403.426-4.805l.213-2.323c.507-4.558 1.727-8.806 3.236-13.122l.988-2.84c8.45-22.097 25.27-39.753 46.633-49.73C228.675 30.29 233.71 28.456 239 27l2.418-.684c25.234-5.817 53.467.436 73.836 16.309M216 75c-11.33 14.372-14.29 30.238-13 48 2.9 16.21 12.497 29.786 25.625 39.473 4.247 2.73 8.666 4.729 13.375 6.527l2.512.973c13.836 4.555 29.374 3.104 42.488-2.973 15.142-7.863 25.81-19.042 31.438-35.437 4.63-14.931 3.521-30.753-2.981-44.926-8.54-15.382-20.806-25.294-37.363-30.762C254.954 49.331 231.879 57.561 216 75M98 210l2.292.946c3.447 1.428 6.89 2.866 10.333 4.304l3.605 1.488 3.497 1.465 3.205 1.333c10.403 4.964 17.12 12.617 21.162 23.347 3.173 10.914 1.972 20.758-2.844 30.922-5.055 8.877-12.944 15.115-22.687 18.07-14.586 3.408-26.509-1.639-39.834-7.27l-2.545-1.058-2.296-.974c-1.95-.828-1.95-.828-3.888.427 7.467 10.777 17.445 19.044 30.68 21.758 15.445 1.612 28.432-.485 41.097-9.801 10.68-9.074 16.774-21.014 18.098-34.957.592-14.322-3.888-26.535-13.187-37.5-8.641-8.95-19.77-14.073-32.196-14.668l-3.617-.02-3.633-.042c-3.125.222-4.57.765-7.242 2.23" style="transition: fill var(--icon-duration, 0.3s) ease, stroke var(--icon-duration, 0.3s) ease;"/><path fill="var(--color-2, #000)" d="M291.855 76.195C301.975 84.908 308.653 95.528 310 109c.925 13.803-2.546 26.188-11.414 36.922-8.838 9.424-19.604 15.672-32.664 16.414-14.769.32-26.962-3.261-38.176-13.367-8.95-9.375-14.161-21.323-14.059-34.281l.018-2.27c.128-5.893.891-10.989 3.295-16.418l1.184-2.695C224.453 80.553 234.054 73.116 247 68c15.337-4.83 32.159-1.566 44.855 8.195" style="transition: fill var(--icon-duration, 0.3s) ease, stroke var(--icon-duration, 0.3s) ease;"/></symbol><symbol id="switch-next" viewBox="0 0 18 38"><path stroke="var(--stroke-1, #000)" stroke-linecap="round" stroke-linejoin="round" stroke-width="3.365" d="M1.682 1.682v34.074L15.425 18.91z" fill="var(--color-1, #000)" style="transition: fill var(--icon-duration, 0.3s) ease, stroke var(--icon-duration, 0.3s) ease;"/></symbol><symbol id="switch-prev" viewBox="0 0 18 38"><g clip-path="url(#a)"><path stroke="var(--stroke-1, #000)" stroke-linecap="round" stroke-linejoin="round" stroke-width="3.365" d="M16.318 1.682v34.074L2.575 18.91z" fill="var(--color-1, #000)" style="transition: fill var(--icon-duration, 0.3s) ease, stroke var(--icon-duration, 0.3s) ease;"/></g><defs><clipPath id="a"><path fill="var(--color-2, #000)" d="M18 0H0v38h18z" style="transition: fill var(--icon-duration, 0.3s) ease, stroke var(--icon-duration, 0.3s) ease;"/></clipPath></defs></symbol><symbol id="treangle-down" viewBox="0 0 23 11"><path stroke="var(--stroke-1, #000)" stroke-linecap="round" stroke-linejoin="round" stroke-width="2" d="M21.255 1H1l10.014 8.17z" fill="var(--color-1, #000)" style="transition: fill var(--icon-duration, 0.3s) ease, stroke var(--icon-duration, 0.3s) ease;"/></symbol><symbol id="twitch" viewBox="0 0 20 19"><path fill="var(--color-1, #000)" fill-rule="evenodd" d="M19.149 12.945V0H2.128L0 2.297v12.11h5.32v3.758h2.34l2.553-2.714h6.383zm-12.553-.209H3.19a.423.423 0 0 1-.425-.417V2.088c0-.23.191-.418.425-.418h13.617c.235 0 .426.188.426.418v7.934a.4.4 0 0 1-.122.298l-2.34 2.296a.44.44 0 0 1-.304.12h-3.91L7.261 14.96a.43.43 0 0 1-.437.026.41.41 0 0 1-.228-.37z" clip-rule="evenodd" style="transition: fill var(--icon-duration, 0.3s) ease, stroke var(--icon-duration, 0.3s) ease;"/><path fill="var(--color-2, #000)" d="M12.979 9.083V4.907h-1.702v4.176zm-4.256 0V4.907H7.021v4.176z" style="transition: fill var(--icon-duration, 0.3s) ease, stroke var(--icon-duration, 0.3s) ease;"/></symbol><symbol id="twitter" viewBox="0 0 19 14"><path fill="var(--color-1, #000)" d="M18.025 1.657a7.7 7.7 0 0 1-2.124.557A3.58 3.58 0 0 0 17.526.258a7.6 7.6 0 0 1-2.348.858A3.77 3.77 0 0 0 12.478 0c-2.04 0-3.697 1.582-3.697 3.534q0 .417.096.805C5.803 4.192 3.08 2.785 1.255.647a3.4 3.4 0 0 0-.5 1.777c0 1.225.652 2.307 1.644 2.94a3.8 3.8 0 0 1-1.675-.441v.045c0 1.712 1.275 3.14 2.966 3.465a3.9 3.9 0 0 1-1.67.06c.47 1.405 1.837 2.426 3.454 2.456a7.65 7.65 0 0 1-4.592 1.512q-.443 0-.882-.05A10.83 10.83 0 0 0 5.669 14c6.802 0 10.52-5.386 10.52-10.057 0-.152 0-.305-.01-.457a7.4 7.4 0 0 0 1.845-1.829z" style="transition: fill var(--icon-duration, 0.3s) ease, stroke var(--icon-duration, 0.3s) ease;"/></symbol><symbol id="x-box" viewBox="0 0 30 30"><path fill="var(--color-1, #000)" d="M10.516 2.519a19 19 0 0 1 4.007 2.32c.144.105.31.161.474.161.165 0 .33-.056.475-.161a19.2 19.2 0 0 1 4.007-2.326.89.89 0 0 0 .52-.834.88.88 0 0 0-.53-.824c-2.785-1.14-6.158-1.14-8.938 0A.89.89 0 0 0 10 1.68c0 .361.196.706.516.84" style="transition: fill var(--icon-duration, 0.3s) ease, stroke var(--icon-duration, 0.3s) ease;"/><path fill="var(--color-2, #000)" d="M23.502 2.17a.92.92 0 0 0-1.002-.042 41 41 0 0 0-5.045 3.495.97.97 0 0 0-.351.704.98.98 0 0 0 .287.733c3.316 3.215 7.91 13.075 8.965 17.608-2.286-3.937-7.383-13.2-10.717-16.367a.927.927 0 0 0-1.278 0c-3.34 3.167-8.42 12.436-10.705 16.379 1.055-4.533 5.637-14.405 8.953-17.62a.965.965 0 0 0-.059-1.437 41 41 0 0 0-5.044-3.495.93.93 0 0 0-1.002.041C2.432 5.026 0 9.72 0 14.731c0 3.662 1.295 7.193 3.656 9.949a14.76 14.76 0 0 0 22.7-.006C28.706 21.93 30 18.399 30 14.73c0-5.01-2.432-9.705-6.498-12.562" style="transition: fill var(--icon-duration, 0.3s) ease, stroke var(--icon-duration, 0.3s) ease;"/></symbol><symbol id="youtube" viewBox="0 0 25 18"><path fill="var(--color-1, #000)" d="M19.81 0H5.19C2.326 0 0 2.367 0 5.28v7.434c0 2.919 2.326 5.28 5.19 5.28h14.615c2.869 0 5.19-2.367 5.19-5.28V5.28C25 2.367 22.673 0 19.81 0m-3.514 9.364-6.838 3.317a.272.272 0 0 1-.39-.254V5.584c0-.21.216-.342.395-.248l6.839 3.526c.206.105.2.403-.006.502" style="transition: fill var(--icon-duration, 0.3s) ease, stroke var(--icon-duration, 0.3s) ease;"/></symbol></svg>