<?xml version="1.0" encoding="UTF-8"?>
<svg version="1.1" xmlns="http://www.w3.org/2000/svg" width="55" height="55">
<path d="M0 0 C4.50665768 2.13473258 7.1741532 4.91822129 10 9 C10.93742541 11.81227622 11.13470844 13.58746844 11.125 16.5 C11.12886719 17.66015625 11.12886719 17.66015625 11.1328125 18.84375 C11 21 11 21 10 24 C13.17320782 27.53586014 15.16743695 29.58578031 20 30 C20 30.99 20 31.98 20 33 C18.865625 33.12375 17.73125 33.2475 16.5625 33.375 C15.386875 33.58125 14.21125 33.7875 13 34 C12.505 34.99 12.505 34.99 12 36 C-0.21 36 -12.42 36 -25 36 C-25.33 35.34 -25.66 34.68 -26 34 C-28.32156597 33.59270772 -30.6568787 33.25561323 -33 33 C-33 32.01 -33 31.02 -33 30 C-32.071875 29.731875 -31.14375 29.46375 -30.1875 29.1875 C-26.47991781 27.82706983 -26.47991781 27.82706983 -24 25 C-23.78733814 22.03056874 -23.78733814 22.03056874 -24.0625 18.75 C-24.19685137 12.71090614 -23.73372727 9.74284275 -20 5 C-13.68633418 -0.71236431 -8.33439661 -0.73090932 0 0 Z M-10 8 C-10 8.66 -10 9.32 -10 10 C-10.99 10 -11.98 10 -13 10 C-13.268125 10.78375 -13.53625 11.5675 -13.8125 12.375 C-15 15 -15 15 -18 17 C-17.79375 17.763125 -17.5875 18.52625 -17.375 19.3125 C-17 22 -17 22 -19 25 C-15.44849983 25 -14.91094204 24.46669967 -12.375 22.125 C-8.6684592 18.32482028 -8.15058899 15.13240061 -7.97265625 9.94140625 C-7.98167969 9.30074219 -7.99070312 8.66007813 -8 8 C-8.66 8 -9.32 8 -10 8 Z " fill="#E43B2E" transform="translate(34,0)"/>
<path d="M0 0 C4.50665768 2.13473258 7.1741532 4.91822129 10 9 C10.94238698 11.82716095 11.13465647 13.63176123 11.125 16.5625 C11.12886719 17.74005859 11.12886719 17.74005859 11.1328125 18.94140625 C11 21 11 21 10 23 C8 22 6 21 4 20 C1.88316159 20.89163577 1.88316159 20.89163577 0 22 C-0.721875 21.175 -1.44375 20.35 -2.1875 19.5 C-4.72917366 16.75592194 -4.72917366 16.75592194 -7.8125 16.6875 C-8.534375 16.790625 -9.25625 16.89375 -10 17 C-9.67 14.36 -9.34 11.72 -9 9 C-9.33 9.33 -9.66 9.66 -10 10 C-10.99 10 -11.98 10 -13 10 C-13.1546875 11.175625 -13.1546875 11.175625 -13.3125 12.375 C-14 15 -14 15 -17 17 C-16.67 18.65 -16.34 20.3 -16 22 C-18.64738916 23.4606285 -19.89448334 24 -23 24 C-24.5302087 19.40937391 -24.9413765 14.62459862 -23.28125 9.99609375 C-17.89283283 -0.06373347 -10.48171838 -0.919225 0 0 Z " fill="#FCB54B" transform="translate(34,0)"/>
<path d="M0 0 C5.61 0 11.22 0 17 0 C17 5.61 17 11.22 17 17 C11.39 17 5.78 17 0 17 C0 11.39 0 5.78 0 0 Z " fill="#FDB54A" transform="translate(1,38)"/>
<path d="M0 0 C5.61 0 11.22 0 17 0 C17 5.61 17 11.22 17 17 C11.39 17 5.78 17 0 17 C0 11.39 0 5.78 0 0 Z " fill="#FCB54B" transform="translate(37,38)"/>
<path d="M0 0 C5.61 0 11.22 0 17 0 C17 5.61 17 11.22 17 17 C11.39 17 5.78 17 0 17 C0 11.39 0 5.78 0 0 Z " fill="#FDB34C" transform="translate(19,38)"/>
<path d="M0 0 C1.65 0 3.3 0 5 0 C5 1.65 5 3.3 5 5 C3.0625 5.5625 3.0625 5.5625 1 6 C0 5 0 5 -0.0625 2.4375 C-0.041875 1.633125 -0.02125 0.82875 0 0 Z " fill="#E04428" transform="translate(25,44)"/>
<path d="M0 0 C0.66 0.33 1.32 0.66 2 1 C2 1.66 2 2.32 2 3 C3.32 2.67 4.64 2.34 6 2 C6 3.65 6 5.3 6 7 C5.01 6.34 4.02 5.68 3 5 C0.37468476 4.83286431 0.37468476 4.83286431 -2 5 C-1.34 3.35 -0.68 1.7 0 0 Z " fill="#FDAF57" transform="translate(26,12)"/>
<path d="M0 0 C2.97 0.495 2.97 0.495 6 1 C6 1.99 6 2.98 6 4 C4.02 4 2.04 4 0 4 C0 2.68 0 1.36 0 0 Z " fill="#DC3E39" transform="translate(48,29)"/>
</svg>
