<?xml version="1.0" encoding="UTF-8"?>
<svg version="1.1" xmlns="http://www.w3.org/2000/svg" width="350" height="350">
<path d="M0 0 C15.0171075 12.98776865 25.3725741 26.49957641 31.74609375 45.375 C32.08640625 46.33921875 32.42671875 47.3034375 32.77734375 48.296875 C39.06262726 69.82979072 35.32364931 94.92348557 24.74609375 114.375 C20.31175217 122.27367094 14.98984406 128.83927576 8.74609375 135.375 C8.194375 136.00148437 7.64265625 136.62796875 7.07421875 137.2734375 C-5.7539568 151.30822362 -26.73088767 159.14568095 -45.25390625 161.375 C-47.60835707 161.35504703 -49.96277874 161.31537854 -52.31640625 161.25 C-61.75512353 161.72084088 -68.03893107 168.57663864 -74.90527344 174.42431641 C-78.66256289 177.54497573 -82.60989894 180.38925477 -86.56640625 183.25 C-94.25316873 188.86520889 -101.86326504 194.57424973 -109.37988281 200.41577148 C-113.70881789 203.76250781 -118.05694162 206.94735126 -122.6640625 209.90234375 C-133.04176224 216.27463848 -133.04176224 216.27463848 -138.56689453 226.59375 C-138.94045269 228.74450989 -139.24849291 230.89465304 -139.53515625 233.05859375 C-141.14468918 244.92353399 -148.94216511 255.24394888 -157.25390625 263.375 C-157.86234375 264.02984375 -158.47078125 264.6846875 -159.09765625 265.359375 C-168.72301516 275.59725675 -183.79902475 282.0286751 -197.80859375 282.61328125 C-216.58249179 283.0079437 -232.94785021 279.76895215 -247.56640625 267 C-249.14767042 265.47758547 -250.71109377 263.93636864 -252.25390625 262.375 C-252.96289062 261.68792969 -253.671875 261.00085938 -254.40234375 260.29296875 C-260.3488141 254.1528394 -265.88775922 245.68518589 -267.72232056 237.21141052 C-268.53344982 233.69690123 -269.21210861 231.15542598 -272.17149353 228.93850708 C-274.70211335 227.73294679 -277.23485022 226.76736352 -279.8828125 225.84765625 C-280.82825424 225.48780136 -281.77369598 225.12794647 -282.74778748 224.75718689 C-285.75962981 223.61803918 -288.78622437 222.52680623 -291.81640625 221.4375 C-294.84570936 220.31342803 -297.87129837 219.17992082 -300.89573669 218.04283142 C-302.77627655 217.33966798 -304.66038753 216.64596864 -306.54823303 215.96266174 C-307.39929123 215.65150925 -308.25034943 215.34035675 -309.12719727 215.01977539 C-310.25279808 214.61415123 -310.25279808 214.61415123 -311.40113831 214.20033264 C-313.25390625 213.375 -313.25390625 213.375 -315.25390625 211.375 C-315.45745164 208.82642353 -315.53712815 206.38603978 -315.52856445 203.8359375 C-315.53367538 203.05857239 -315.53878632 202.28120728 -315.54405212 201.48028564 C-315.55798459 198.90344607 -315.55698881 196.32687282 -315.5546875 193.75 C-315.5585721 191.96402893 -315.56290628 190.17805878 -315.56767273 188.39208984 C-315.57514257 184.6461284 -315.57483792 180.9002612 -315.56958008 177.15429688 C-315.56378096 172.34529941 -315.58072332 167.53668652 -315.60392475 162.72775269 C-315.61862937 159.03895804 -315.61953834 155.35025675 -315.61641502 151.66143799 C-315.61692977 149.88795204 -315.62219616 148.11446107 -315.63222694 146.34100342 C-315.64451258 143.86509926 -315.63784799 141.38995378 -315.6262207 138.9140625 C-315.63768631 137.80747284 -315.63768631 137.80747284 -315.64938354 136.67852783 C-315.62812805 134.63916016 -315.62812805 134.63916016 -315.25390625 131.375 C-312.25390625 129.375 -312.25390625 129.375 -309.73339844 129.48583984 C-304.81925861 130.74161428 -300.2578884 132.65235587 -295.58203125 134.6015625 C-294.54560486 135.02746674 -293.50917847 135.45337097 -292.44134521 135.8921814 C-289.12641441 137.25559289 -285.81504029 138.62739672 -282.50390625 140 C-275.06657679 143.07061931 -267.62421064 146.1285152 -260.17553711 149.17150879 C-257.40008384 150.31478587 -254.63607512 151.48235778 -251.87304688 152.65527344 C-250.26592109 153.32037736 -248.65851831 153.98481256 -247.05078125 154.6484375 C-245.98419281 155.11450912 -245.98419281 155.11450912 -244.89605713 155.58999634 C-241.50227551 156.96653596 -239.58182906 157.45001439 -235.9699707 156.6237793 C-235.07366943 156.21168213 -234.17736816 155.79958496 -233.25390625 155.375 C-232.18011719 154.96121094 -231.10632813 154.54742187 -230 154.12109375 C-227.79112786 153.24745483 -225.58279522 152.37245063 -223.375 151.49609375 C-219.18140889 149.98976002 -216.16267731 149.31229181 -211.6875 149.62109375 C-206.68713398 149.94561419 -201.64488722 150.24152508 -197.51757812 147.01953125 C-194.01844483 143.26708647 -191.31649518 138.96677735 -188.63769531 134.60791016 C-186.9088951 131.818283 -185.0496979 129.13515666 -183.171875 126.44458008 C-181.79587795 124.47054972 -180.44199292 122.48261078 -179.08984375 120.4921875 C-176.11730923 116.1467539 -173.03690851 111.88335059 -169.94140625 107.625 C-163.43181759 98.66709305 -157.04688203 89.62270575 -150.76513672 80.50341797 C-149.80849329 79.15608075 -148.81606741 77.83287933 -147.77783203 76.54736328 C-144.17091926 72.01832415 -143.44711333 68.34055893 -143.12890625 62.625 C-142.99320376 61.02289808 -142.85129303 59.42130968 -142.703125 57.8203125 C-142.63270996 57.05364258 -142.56229492 56.28697266 -142.48974609 55.49707031 C-141.98314593 50.9387177 -140.76272693 46.69062247 -139.25390625 42.375 C-138.92777344 41.43785156 -138.60164062 40.50070313 -138.265625 39.53515625 C-129.81592665 17.43817878 -112.9960263 -0.21785622 -91.6328125 -10.1953125 C-86.57927951 -12.33357039 -81.54520162 -14.16861303 -76.25390625 -15.625 C-75.45597656 -15.85058594 -74.65804687 -16.07617188 -73.8359375 -16.30859375 C-48.60212596 -22.12560913 -20.36861003 -15.87325469 0 0 Z M-99.25390625 32.375 C-110.58480321 46.74690975 -113.54471522 62.61318722 -112.25390625 80.375 C-109.35334541 96.58499146 -99.75714434 110.16102224 -86.62890625 119.84765625 C-82.38201123 122.57880091 -77.96324248 124.5768898 -73.25390625 126.375 C-72.42503906 126.69597656 -71.59617188 127.01695312 -70.7421875 127.34765625 C-56.90636673 131.90309494 -41.36790696 130.45156658 -28.25390625 124.375 C-13.11162558 116.51229549 -2.44459348 105.33265411 3.18359375 88.9375 C7.81446153 74.00658549 6.70534505 58.18491234 0.203125 44.01171875 C-8.33766527 28.6304786 -20.60328443 18.71832464 -37.16015625 13.25 C-60.29953878 6.70552817 -83.37490642 14.93645554 -99.25390625 32.375 Z M-217.25390625 167.375 C-216.49770996 167.68727539 -215.74151367 167.99955078 -214.96240234 168.32128906 C-211.51512071 169.74924475 -208.07201637 171.18701671 -204.62890625 172.625 C-203.43910156 173.11613281 -202.24929687 173.60726562 -201.0234375 174.11328125 C-199.86972656 174.59667969 -198.71601563 175.08007812 -197.52734375 175.578125 C-196.46950684 176.01801758 -195.41166992 176.45791016 -194.32177734 176.91113281 C-183.91937801 181.87474784 -177.20106049 189.52757355 -173.16015625 200.2578125 C-169.98714059 211.17189223 -171.18785126 221.01639499 -176.00390625 231.1796875 C-181.0585106 240.05683639 -188.9475304 246.29522806 -198.69140625 249.25 C-213.27655793 252.6579353 -225.19943995 247.61141951 -238.52490234 241.98046875 C-239.78488037 241.45646484 -239.78488037 241.45646484 -241.0703125 240.921875 C-241.82771729 240.60057617 -242.58512207 240.27927734 -243.36547852 239.94824219 C-245.31632177 239.11965197 -245.31632177 239.11965197 -247.25390625 240.375 C-239.7866699 251.15189056 -229.80918098 259.41936836 -216.57421875 262.1328125 C-201.12852103 263.7449897 -188.14190472 261.64845035 -175.4765625 252.33203125 C-164.79699676 243.25841525 -158.70317111 231.31783462 -157.37890625 217.375 C-156.78732693 203.0525534 -161.26684709 190.83990575 -170.56640625 179.875 C-179.20700739 170.92580596 -190.33572603 165.80203981 -202.76171875 165.20703125 C-203.95539063 165.20058594 -205.1490625 165.19414062 -206.37890625 165.1875 C-208.17714844 165.16623047 -208.17714844 165.16623047 -210.01171875 165.14453125 C-213.13708933 165.36669615 -214.5817803 165.90972257 -217.25390625 167.375 Z " fill="#FFFFFF" transform="translate(315.25390625,42.625)"/>
<path d="M0 0 C10.11912307 8.71255131 16.7973124 19.33249904 18.14453125 32.8046875 C19.06921168 46.60723446 15.59847983 58.9931122 6.73046875 69.7265625 C-2.10758567 79.15042457 -12.87357413 85.39831205 -25.93359375 86.140625 C-40.70203233 86.46091704 -52.89560913 82.87943101 -64.109375 72.7734375 C-73.05965001 63.39857639 -78.27046219 51.45028613 -78.16796875 38.4921875 C-78.1623291 37.74308105 -78.15668945 36.99397461 -78.15087891 36.22216797 C-78.02214666 30.32980007 -77.25942771 25.23416135 -74.85546875 19.8046875 C-74.26958984 18.47050781 -74.26958984 18.47050781 -73.671875 17.109375 C-67.40252238 4.3575473 -57.80196985 -3.07935642 -44.85546875 -8.1953125 C-29.51857054 -13.02600219 -12.69693384 -9.7615278 0 0 Z " fill="#FFFFFF" transform="translate(291.85546875,76.1953125)"/>
</svg>
