<svg width="30" height="30" viewBox="0 0 30 30" fill="none" xmlns="http://www.w3.org/2000/svg">
<path d="M10.5157 2.51878C11.9082 3.10848 13.2542 3.88734 14.5229 4.83866C14.6673 4.94437 14.8323 5 14.9974 5C15.1624 5 15.3274 4.94437 15.4718 4.83866C16.7405 3.88734 18.0866 3.10292 19.479 2.51321C19.7936 2.37969 20.0051 2.0459 19.9999 1.67872C19.9999 1.31154 19.7885 0.98331 19.4687 0.855355C16.6838 -0.285118 13.311 -0.285118 10.5312 0.855355C10.2166 0.98331 10 1.31711 10 1.67872C10 2.04033 10.196 2.38526 10.5157 2.51878Z" fill="#FFB548"/>
<path d="M23.502 2.16935C23.2031 1.96059 22.8223 1.94269 22.5 2.12759C20.748 3.1535 19.0547 4.32852 17.4551 5.62283C17.2441 5.7958 17.1152 6.05228 17.1035 6.32665C17.0918 6.60102 17.1973 6.86942 17.3906 7.06029C20.707 10.2752 25.3008 20.1346 26.3555 24.6677C24.0703 20.7311 18.9727 11.4681 15.6387 8.30092C15.2812 7.96094 14.7188 7.96094 14.3613 8.30092C11.0215 11.4681 5.94141 20.737 3.65625 24.6796C4.71094 20.1465 9.29297 10.2752 12.6094 7.06029C12.8086 6.86942 12.9141 6.60102 12.9023 6.32665C12.8906 6.05228 12.7617 5.7958 12.5508 5.62283C10.9512 4.32852 9.25195 3.1535 7.50586 2.12759C7.19531 1.94269 6.80273 1.96059 6.50391 2.16935C2.43164 5.02637 0 9.72048 0 14.7307C0 18.393 1.29492 21.924 3.65625 24.6796C6.48047 28.0556 10.6113 30 15 30C19.3887 30 23.5254 28.0615 26.3555 24.6736C28.7051 21.9299 30 18.3989 30 14.7307C30 9.72048 27.5684 5.02637 23.502 2.16935Z" fill="#FFB548"/>
</svg>
